<?xml version="1.0" encoding="UTF-8" standalone="no"?>
<svg width="100px" height="59px" viewBox="0 0 100 59" version="1.1" xmlns="http://www.w3.org/2000/svg" xmlns:xlink="http://www.w3.org/1999/xlink" xmlns:sketch="http://www.bohemiancoding.com/sketch/ns">
    <!-- Generator: Sketch 3.0 (7574) - http://www.bohemiancoding.com/sketch -->
    <title>SVG</title>
    <description>Created with Sketch.</description>
    <defs></defs>
    <g id="Page-1" stroke="none" stroke-width="1" fill="none" fill-rule="evenodd" sketch:type="MSPage">
        <path d="M6.42451886,58.5740769 C5.923907,58.5740769 5.42440761,58.5218846 4.95049505,58.3959423 L26.5691401,29.2170385 L28.2155968,27 L31.1113583,29.2170385 L49.636222,43.4008654 L50.2124819,43.4008654 L68.7351207,29.2170385 L71.6319947,27 L73.2817889,29.2170385 L94.8970965,58.3959423 C94.399822,58.5218846 93.9003226,58.5740769 93.4252976,58.5740769 L50.0111247,58.5740769 L49.8342419,58.5740769 L6.42451886,58.5740769 Z M3.47647124,0.625865385 C4.35087329,0.115288462 5.3487596,-0.141134615 6.42340639,-0.141134615 L63.0926688,-0.141134615 L92.8245634,-0.141134615 C94.0727556,-0.141134615 95.2219379,0.241230769 96.2175993,0.878884615 L74.0994549,17.4771731 L58.4247414,29.2170385 L49.636222,35.8102885 L40.9734119,29.2170385 L3.47647124,0.625865385 Z M99.6150851,6.20136538 L99.6150851,52.2327115 C99.6150851,53.0224038 99.4916008,53.7621731 99.2168206,54.4508846 L76.2242741,23.4645385 L99.5872733,5.56371154 C99.6150851,5.74184615 99.6150851,5.96990385 99.6150851,6.20136538 Z M23.6210924,23.4645385 L19.3514295,29.2159038 L0.630770942,54.44975 C0.357103126,53.7610385 0.232506397,53.0212692 0.232506397,52.2315769 L0.232506397,29.2170385 L0.232506397,6.20136538 C0.232506397,5.97103846 0.232506397,5.74298077 0.255868283,5.56371154 L23.6210924,23.4645385 Z" id="Envelope" fill="#FFFFFF" sketch:type="MSShapeGroup"></path>
    </g>
</svg>