<?xml version="1.0" encoding="UTF-8" standalone="no"?>
<svg width="101px" height="84px" viewBox="0 0 101 84" version="1.1" xmlns="http://www.w3.org/2000/svg" xmlns:xlink="http://www.w3.org/1999/xlink" xmlns:sketch="http://www.bohemiancoding.com/sketch/ns">
    <!-- Generator: Sketch 3.0 (7574) - http://www.bohemiancoding.com/sketch -->
    <title>SVG</title>
    <description>Created with Sketch.</description>
    <defs></defs>
    <g id="Page-1" stroke="none" stroke-width="1" fill="none" fill-rule="evenodd" sketch:type="MSPage">
        <path d="M31.4945055,83 C19.8919414,83 9.09230769,79.5704054 0,73.6922613 C1.60732601,73.8835946 3.24285714,73.9814775 4.9010989,73.9814775 C14.5267399,73.9814775 23.3857143,70.6693423 30.4172161,65.1129189 C21.4267399,64.9455946 13.8391941,58.9559009 11.2249084,50.7248739 C12.4791209,50.9668108 13.7663004,51.0964595 15.0901099,51.0964595 C16.9641026,51.0964595 18.7791209,50.8434414 20.5032967,50.3699099 C11.1040293,48.4669189 4.02234432,40.0933153 4.02234432,30.0553333 C4.02234432,29.9681622 4.02234432,29.8813604 4.02380952,29.7949279 C6.79413919,31.3466486 9.96190476,32.2785676 13.3300366,32.3860541 C7.81721612,28.6709369 4.18974359,22.3296036 4.18974359,15.142045 C4.18974359,11.3452973 5.2029304,7.78642342 6.97142857,4.72656757 C17.1047619,17.2607477 32.2435897,25.5087658 49.3190476,26.3727207 C48.9688645,24.8564595 48.7868132,23.2751892 48.7868132,21.6514414 C48.7868132,10.2102252 57.9860806,0.934252252 69.332967,0.934252252 C75.2421245,0.934252252 80.581685,3.4503964 84.3296703,7.47689189 C89.0095238,6.54755856 93.4065934,4.82334234 97.3761905,2.44940541 C95.8421245,7.28703604 92.5846154,11.3471441 88.3424908,13.9113063 C92.4985348,13.4104414 96.4582418,12.2967928 100.142857,10.649036 C97.3882784,14.8037027 93.9047619,18.4527027 89.8908425,21.3736757 C89.9304029,22.262009 89.9501832,23.1555135 89.9501832,24.0538198 C89.9501832,51.4311081 69.2849817,83 31.4945055,83" id="Twitter" fill="#FFFFFF" sketch:type="MSShapeGroup"></path>
    </g>
</svg>