<?xml version="1.0" encoding="UTF-8" standalone="no"?>
<svg width="100px" height="100px" viewBox="0 0 100 100" version="1.1" xmlns="http://www.w3.org/2000/svg" xmlns:xlink="http://www.w3.org/1999/xlink" xmlns:sketch="http://www.bohemiancoding.com/sketch/ns">
    <!-- Generator: Sketch 3.0 (7574) - http://www.bohemiancoding.com/sketch -->
    <title>SVG</title>
    <description>Created with Sketch.</description>
    <defs></defs>
    <g id="Page-1" stroke="none" stroke-width="1" fill="none" fill-rule="evenodd" sketch:type="MSPage">
        <path d="M92.5930556,0 L7.38148148,0 C3.30787037,0 0,3.23009259 0,7.20509259 L0,92.7842593 C0,96.7666667 3.30787037,100 7.38148148,100 L92.5930556,100 C96.6712963,100 100,96.7666667 100,92.7842593 L100,7.20509259 C100,3.23009259 96.6712963,0 92.5930556,0 Z M22.0231481,13.8888889 C26.7648148,13.8888889 30.6189815,17.7430556 30.6189815,22.4865741 C30.6189815,27.2351852 26.7648148,31.0893519 22.0231481,31.0893519 C17.2689815,31.0893519 13.4259259,27.2351852 13.4259259,22.4865741 C13.4259259,17.7430556 17.2689815,13.8888889 22.0231481,13.8888889 Z M14.6032407,37.6138889 L29.4416667,37.6138889 L29.4416667,85.3356481 L14.6032407,85.3356481 L14.6032407,37.6138889 Z M38.8888889,37.3009259 L53.1180556,37.3009259 L53.1180556,43.8189815 L53.3203704,43.8189815 C55.3009259,40.0680556 60.1402778,36.1111111 67.3560185,36.1111111 C82.3643519,36.1111111 85.1365741,45.9925926 85.1365741,58.8467593 L85.1365741,85.0226852 L70.3217593,85.0226852 L70.3217593,61.8166667 C70.3217593,56.2791667 70.212963,49.1611111 62.612037,49.1611111 C54.8939815,49.1611111 53.7166667,55.1902778 53.7166667,61.4148148 L53.7166667,85.0226852 L38.8888889,85.0226852 L38.8888889,37.3009259 Z" id="LinkedIn" fill="#FFFFFF" sketch:type="MSShapeGroup"></path>
    </g>
</svg>